<?xml version="1.0" encoding="utf-8"?>
<!-- Generator: Adobe Illustrator 22.0.1, SVG Export Plug-In . SVG Version: 6.00 Build 0)  -->
<svg version="1.1" id="Capa_1" xmlns="http://www.w3.org/2000/svg" xmlns:xlink="http://www.w3.org/1999/xlink" x="0px" y="0px"
	 viewBox="0 0 511.9 511.9" style="enable-background:new 0 0 511.9 511.9;" xml:space="preserve">
<circle class="st0" fill="#E57E25" cx="256" cy="256" r="255"/>
<path class="st1" fill="#38454F" d="M7.6,275.9c33-31.5,87.2-41.5,126.2-23.3c-34.6,49.3-60.1,105.5-74.3,165.9c4.3,5.2,8.8,10.1,13.5,15
	c1.3-1.2,2.3-2.7,2.7-4.6c13.4-60.9,38.8-117.3,73.5-166.6c23.3,18.1,34.7,47.8,32.1,85.9l0,0.5l0,0.5
	c2.3,55.2,34.1,105.7,85.1,135.1c16,9.3,32.9,15.7,49.8,19.4c15.1-3.7,29.7-8.7,43.6-14.9c-27.8,2.1-57.2-4.7-84.3-20.3
	c-45.4-26.2-73.8-70.9-76-119.6c3.6-55.2-18.3-85.4-39.4-101.5c13.5-17.7,28.3-34.4,44.2-50c65.2,60.6,126.4,125.5,182.8,194.1
	l39.3,47.8l14.1-11.6L401.3,380c-56.7-68.9-118.2-134.1-183.6-195c12.7-11.5,26-22.2,39.8-32.3c21.8,27.5,56.8,41,100.5,38.1
	c41.2,1.9,79.8,24.3,106,61.5c20.4,29,30.8,63.4,29.8,95.5c5.7-14.7,10-30,12.9-45.8c-5.4-21-14.7-41.7-27.8-60.2
	c-29.6-42-73.6-67.3-120.7-69.2l-0.5,0l-0.5,0c-37.1,2.5-66.4-8.3-84.7-30.4c46.8-31.1,99.6-54,156.2-66.5c1.8-0.4,3.3-1.5,4.5-2.8
	c-4.8-4.7-9.8-9.2-14.9-13.5c-56.4,13.2-109,36.3-155.8,67.5C245,91.3,251.2,41.3,277.9,7l3.7-4.8C273.2,1.4,264.6,1,256,1v5.6
	c-25.3,40-29,92.1-8.4,130.9c-15.1,10.9-29.6,22.6-43.3,35.1c-29.8-27.2-60.2-53.7-91.6-79L82.5,69.1c-4.5,4.2-8.8,8.5-13,13
	l31.7,25.7c30.7,24.8,60.6,50.7,89.8,77.4c-16.7,16.4-32.2,33.9-46.3,52.6c-1-0.5-2.1-1.1-3.1-1.5C98.4,215.9,41.6,224.4,2.7,256H1
	c0,8.5,0.4,16.8,1.2,25.1L7.6,275.9z"/>
</svg>
