<?xml version="1.0" encoding="utf-8"?>
<!-- Generator: Adobe Illustrator 23.0.0, SVG Export Plug-In . SVG Version: 6.00 Build 0)  -->
<svg version="1.1" id="Capa_1" xmlns="http://www.w3.org/2000/svg" xmlns:xlink="http://www.w3.org/1999/xlink" x="0px" y="0px"
	 viewBox="0 0 512 512" style="enable-background:new 0 0 512 512;" xml:space="preserve">
<circle class="st0" fill="#E2DED9" cx="256" cy="256" r="233.5"/>
<g>
	<g id="earth">
		<path class="st1" fill="#3C9900" d="M256,0C115.2,0,0,115.2,0,256s115.2,256,256,256s256-115.2,256-256S396.8,0,256,0z M256,465.9
			c-28.2,0-56.3-5.1-81.9-15.4c-15.4-38.4-15.4-66.6,28.2-53.8c0,0,99.8,38.4,204.8,2.6C371.2,440.3,317.4,465.9,256,465.9z
			 M437.8,361c-23,10.2-53.8,25.6-102.4,25.6s-89.6-20.5-143.4-35.8c-48.6-15.4-66.6-38.4-97.3-38.4c-17.9,0-25.6,17.9-30.7,30.7
			c-12.8-25.6-20.5-56.3-20.5-87c0-20.5,2.6-41,7.7-58.9c33.3-41,81.9-66.6,153.6-10.2c0,0,158.7,120.3,250.9,128
			C453.1,330.2,445.4,345.6,437.8,361z M266.2,143.4C194.6,74.2,135.7,94.7,110.1,105C128,87,151,71.7,176.6,61.4
			c71.7-2.6,151,10.2,194.6,74.2c0,0,61.4,107.5,84.5,58.9c5.1,17.9,7.7,38.4,7.7,58.9c0,7.7,0,15.4,0,23
			C412.2,271.4,340.5,212.5,266.2,143.4z"/>
	</g>
</g>
</svg>
