<?xml version="1.0" encoding="iso-8859-1"?>
<!-- Generator: Adobe Illustrator 19.0.0, SVG Export Plug-In . SVG Version: 6.00 Build 0)  -->
<svg version="1.1" id="Capa_1" xmlns="http://www.w3.org/2000/svg" xmlns:xlink="http://www.w3.org/1999/xlink" x="0px" y="0px"
	 viewBox="0 0 512 512" style="enable-background:new 0 0 512 512;" xml:space="preserve">
<path style="fill:#E3E3E3;" d="M255.001,511.004c-68.113,0-132.15-26.525-180.313-74.688C26.525,388.151,0,324.115,0,256.002
	C0,187.89,26.525,123.853,74.688,75.689s112.2-74.688,180.313-74.688S387.15,27.526,435.315,75.689
	c48.164,48.164,74.688,112.201,74.688,180.313c0,68.113-26.525,132.149-74.688,180.314
	C387.151,484.479,323.115,511.004,255.001,511.004z"/>
<path style="fill:#D0D0D0;" d="M256.998,1.001c-0.001,0-0.002,0-0.003,0v510.003c0.001,0,0.002,0,0.003,0
	c68.113,0,132.149-26.525,180.314-74.688C485.476,388.151,512,324.115,512,256.002c0-68.112-26.525-132.149-74.688-180.313
	C389.148,27.525,325.113,1.001,256.998,1.001z"/>
<g>
	<path style="fill:#444444;" d="M38.113,270.687c-3.091,0-6.182-0.954-8.808-2.863L6.745,251.425
		c-4.171-3.031-6.489-7.995-6.137-13.14c2.844-41.571,16.034-82.198,38.143-117.487c2.739-4.372,7.535-7.027,12.694-7.027h27.915
		c6.489,0,12.241,4.179,14.247,10.349l25.5,78.461c2.006,6.173-0.191,12.935-5.442,16.75l-66.748,48.493
		C44.293,269.733,41.202,270.687,38.113,270.687z"/>
	<path style="fill:#444444;" d="M165.098,493.596c-1.924,0-3.842-0.371-5.626-1.093c-38.525-15.578-73.054-40.695-99.854-72.639
		c-3.32-3.957-4.367-9.346-2.769-14.258l8.617-26.511c2.005-6.172,7.757-10.349,14.246-10.349h82.497
		c6.49,0,12.242,4.18,14.247,10.351l25.489,78.461c2.004,6.171-0.191,12.93-5.439,16.746l-22.6,16.429
		C171.347,492.593,168.263,493.596,165.098,493.596z"/>
</g>
<g>
	<path style="fill:#282828;" d="M344.914,493.596c-3.118,0-6.209-0.973-8.807-2.861l-22.611-16.429
		c-5.25-3.814-7.446-10.576-5.441-16.748l25.49-78.461c2.005-6.173,7.757-10.351,14.247-10.351h82.507
		c6.489,0,12.242,4.18,14.247,10.35l8.618,26.522c1.598,4.916,0.548,10.306-2.776,14.264
		c-26.847,31.962-61.378,57.074-99.862,72.624C348.713,493.236,346.807,493.596,344.914,493.596z"/>
	<path style="fill:#282828;" d="M471.886,270.687c-3.09,0-6.18-0.954-8.804-2.86l-66.748-48.493
		c-5.251-3.815-7.448-10.577-5.442-16.75l25.499-78.461c2.006-6.172,7.758-10.349,14.247-10.349h27.915
		c5.159,0,9.956,2.655,12.694,7.027c22.11,35.29,35.3,75.92,38.143,117.498c0.353,5.145-1.968,10.111-6.141,13.142l-22.559,16.387
		C478.066,269.733,474.976,270.687,471.886,270.687z"/>
</g>
<path style="fill:#444444;" d="M255.005,113.113c-3.09,0-6.18-0.954-8.804-2.86l-66.748-48.493
	c-5.251-3.815-7.448-10.578-5.442-16.75l8.637-26.574c1.598-4.914,5.614-8.658,10.627-9.906c20.073-4.998,40.842-7.533,61.732-7.533
	c20.865,0,41.628,2.531,61.713,7.521c5.017,1.247,9.037,4.992,10.634,9.91l8.637,26.584c2.005,6.172-0.191,12.933-5.441,16.748
	l-66.738,48.493C261.186,112.159,258.095,113.113,255.005,113.113z"/>
<path style="fill:#282828;" d="M327.353,18.427c-1.598-4.918-5.617-8.663-10.634-9.91c-20.085-4.99-40.848-7.521-61.713-7.521
	c-0.002,0-0.004,0-0.007,0v112.117c0.002,0,0.004,0,0.007,0c3.09,0,6.181-0.954,8.805-2.861l66.738-48.493
	c5.25-3.814,7.446-10.576,5.441-16.748L327.353,18.427z"/>
<path style="fill:#444444;" d="M296.252,327.759h-82.501c-6.49,0-12.242-4.18-14.247-10.35l-25.494-78.464
	c-2.005-6.172,0.191-12.933,5.442-16.749l66.745-48.493c5.25-3.815,12.36-3.814,17.61,0.001l66.744,48.493
	c5.251,3.814,7.447,10.576,5.442,16.748l-25.493,78.463C308.493,323.58,302.741,327.759,296.252,327.759z"/>
<path style="fill:#282828;" d="M330.551,222.196l-66.744-48.493c-2.626-1.908-5.717-2.862-8.808-2.862v156.918h41.254
	c6.489,0,12.242-4.18,14.247-10.351l25.493-78.463C337.998,232.773,335.802,226.01,330.551,222.196z"/>
<g>
</g>
<g>
</g>
<g>
</g>
<g>
</g>
<g>
</g>
<g>
</g>
<g>
</g>
<g>
</g>
<g>
</g>
<g>
</g>
<g>
</g>
<g>
</g>
<g>
</g>
<g>
</g>
<g>
</g>
</svg>
